<svg xmlns="http://www.w3.org/2000/svg" xmlns:xlink="http://www.w3.org/1999/xlink" version="1.1" x="0px" y="0px" viewBox="0 0 100 125" style="enable-background:new 0 0 100 100;" xml:space="preserve"><path d="M83.4453125,14.2480469h-9.5239258V11c0-0.5527344-0.4477539-1-1-1s-1,0.4472656-1,1v3.2480469H58.7236328V11  c0-0.5527344-0.4477539-1-1-1s-1,0.4472656-1,1v3.2480469H43.5263672V11c0-0.5527344-0.4477539-1-1-1s-1,0.4472656-1,1v3.2480469  H28.3286133V11c0-0.5527344-0.4477539-1-1-1s-1,0.4472656-1,1v3.2480469h-9.5239258c-0.5522461,0-1,0.4472656-1,1V89  c0,0.5527344,0.4477539,1,1,1h66.640625c0.5522461,0,1-0.4472656,1-1V15.2480469  C84.4453125,14.6953125,83.9975586,14.2480469,83.4453125,14.2480469z M82.4453125,88h-64.640625V16.2480469h8.5239258v3.2490234  c0,0.5527344,0.4477539,1,1,1s1-0.4472656,1-1v-3.2490234h13.1977539v3.2490234c0,0.5527344,0.4477539,1,1,1s1-0.4472656,1-1  v-3.2490234h13.1972656v3.2490234c0,0.5527344,0.4477539,1,1,1s1-0.4472656,1-1v-3.2490234h13.1977539v3.2490234  c0,0.5527344,0.4477539,1,1,1s1-0.4472656,1-1v-3.2490234h8.5239258V88z"/><path d="M71.2319336,42.3623047H28.4580078c-0.5522461,0-1,0.4472656-1,1s0.4477539,1,1,1h42.7739258c0.5522461,0,1-0.4472656,1-1  S71.7841797,42.3623047,71.2319336,42.3623047z"/><path d="M71.2319336,31.6015625H28.4580078c-0.5522461,0-1,0.4472656-1,1s0.4477539,1,1,1h42.7739258c0.5522461,0,1-0.4472656,1-1  S71.7841797,31.6015625,71.2319336,31.6015625z"/><path d="M71.2319336,53.1230469H28.4580078c-0.5522461,0-1,0.4472656-1,1s0.4477539,1,1,1h42.7739258c0.5522461,0,1-0.4472656,1-1  S71.7841797,53.1230469,71.2319336,53.1230469z"/><path d="M71.2319336,63.8837891H28.4580078c-0.5522461,0-1,0.4472656-1,1s0.4477539,1,1,1h42.7739258c0.5522461,0,1-0.4472656,1-1  S71.7841797,63.8837891,71.2319336,63.8837891z"/><path d="M71.2319336,74.6445312H28.4580078c-0.5522461,0-1,0.4472656-1,1s0.4477539,1,1,1h42.7739258c0.5522461,0,1-0.4472656,1-1  S71.7841797,74.6445312,71.2319336,74.6445312z"/><text x="0" y="115" fill="#000000" font-size="5px" font-weight="bold" font-family="'Helvetica Neue', Helvetica, Arial-Unicode, Arial, Sans-serif">Created by Made</text><text x="0" y="120" fill="#000000" font-size="5px" font-weight="bold" font-family="'Helvetica Neue', Helvetica, Arial-Unicode, Arial, Sans-serif">from the Noun Project</text></svg>