<svg xmlns="http://www.w3.org/2000/svg" xmlns:xlink="http://www.w3.org/1999/xlink" version="1.1" x="0px" y="0px" viewBox="0 0 100 125" style="enable-background:new 0 0 100 100;" xml:space="preserve"><path d="M86.0400391,21.7353516L50.3378906,10.0498047c-0.2021484-0.0664062-0.4199219-0.0673828-0.6220703,0L13.9609375,21.7353516  c-0.4199219,0.1367188-0.7001953,0.5332031-0.6894531,0.9755859c0.0029297,0.1201172-0.0039062,0.3535156-0.0136719,0.6914062  c-0.3994141,14.5097656,2.3378906,50.0380859,36.3056641,66.5214844C49.7011719,89.9912109,49.8505859,90.0244141,50,90.0244141  s0.2988281-0.0332031,0.4365234-0.1005859C84.4091797,73.4375,87.1435547,37.9091797,86.7421875,23.3994141  c-0.0097656-0.3359375-0.0166016-0.5693359-0.0136719-0.6894531C86.7392578,22.2685547,86.4589844,21.8720703,86.0400391,21.7353516  z M50,87.9111328C17.4951172,71.8427734,14.8701172,37.5166016,15.2578125,23.4570312c0-0.0136719,0-0.0283203,0.0009766-0.0419922  l34.7675781-11.3632812l34.7148438,11.3632812c0.0009766,0.0126953,0.0009766,0.0263672,0.0009766,0.0400391  C85.1318359,37.5136719,82.5097656,71.8398438,50,87.9111328z"/><path d="M50,40.8730469c3.5898438,0,6.5097656-2.9208984,6.5097656-6.5107422S53.5898438,27.8525391,50,27.8525391  s-6.5097656,2.9199219-6.5097656,6.5097656S46.4101562,40.8730469,50,40.8730469z M50,29.8525391  c2.4863281,0,4.5097656,2.0234375,4.5097656,4.5097656c0,2.4873047-2.0234375,4.5107422-4.5097656,4.5107422  s-4.5097656-2.0234375-4.5097656-4.5107422C45.4902344,31.8759766,47.5136719,29.8525391,50,29.8525391z"/><path d="M54.6591797,43.3808594h-9.3183594c-3.515625,0-6.375,2.859375-6.375,6.375v7.4423828  c0,1.9199219,1.3242188,3.5371094,3.1074219,3.984375v9.9990234c0,0.5527344,0.4472656,1,1,1h13.8535156  c0.5527344,0,1-0.4472656,1-1v-9.9990234c1.7832031-0.4472656,3.1074219-2.0644531,3.1074219-3.984375v-7.4423828  C61.0341797,46.2402344,58.1748047,43.3808594,54.6591797,43.3808594z M59.0341797,57.1982422  c0,1.1621094-0.9453125,2.1074219-2.1074219,2.1074219c-0.5527344,0-1,0.4472656-1,1v9.8759766H44.0732422v-9.8759766  c0-0.5527344-0.4472656-1-1-1c-1.1621094,0-2.1074219-0.9453125-2.1074219-2.1074219v-7.4423828  c0-2.4121094,1.9628906-4.375,4.375-4.375h9.3183594c2.4121094,0,4.375,1.9628906,4.375,4.375V57.1982422z"/><text x="0" y="115" fill="#000000" font-size="5px" font-weight="bold" font-family="'Helvetica Neue', Helvetica, Arial-Unicode, Arial, Sans-serif">Created by Made</text><text x="0" y="120" fill="#000000" font-size="5px" font-weight="bold" font-family="'Helvetica Neue', Helvetica, Arial-Unicode, Arial, Sans-serif">from the Noun Project</text></svg>