<svg xmlns="http://www.w3.org/2000/svg" xmlns:xlink="http://www.w3.org/1999/xlink" version="1.1" x="0px" y="0px" viewBox="0 0 100 125" style="enable-background:new 0 0 100 100;" xml:space="preserve"><g><path d="M68.4287109,58.3017578c2.0703125,0,3.7548828,1.6801758,3.7548828,3.7456055c0,0.5522461,0.4472656,1,1,1s1-0.4477539,1-1   c0-2.793335-2.0083008-5.125061-4.6582031-5.6380615v-1.1719971c0-0.5522461-0.4472656-1-1-1s-1,0.4477539-1,1v1.1424561   c-2.7443237,0.4349976-4.8515625,2.8071899-4.8515625,5.6676025c0,3.168457,2.5820312,5.7460938,5.7548828,5.7460938h0.1933594   c2.0703125,0,3.7548828,1.6806641,3.7548828,3.7460938s-1.6845703,3.7460938-3.7548828,3.7460938   s-3.7548828-1.6806641-3.7548828-3.7460938c0-0.5522461-0.4472656-1-1-1s-1,0.4477539-1,1   c0,2.7937622,2.0083008,5.1254883,4.6582031,5.6385498v1.1715088c0,0.5522461,0.4472656,1,1,1s1-0.4477539,1-1v-1.1419678   c2.7443237-0.4349976,4.8515625-2.807251,4.8515625-5.6680908c0-3.168457-2.5820312-5.7460938-5.7548828-5.7460938h-0.1933594   c-2.0703125,0-3.7548828-1.6806641-3.7548828-3.7460938S66.3583984,58.3017578,68.4287109,58.3017578z"/><path d="M22.9541016,77.9291992h0.1357422c1.2958984,0,2.3496094,1.0493164,2.3496094,2.3393555   s-1.0537109,2.3398438-2.3496094,2.3398438c-1.2949219,0-2.3486328-1.0498047-2.3486328-2.3398438c0-0.5522461-0.4472656-1-1-1   s-1,0.4477539-1,1c0,1.9984131,1.3679199,3.6685181,3.2128906,4.1706543v0.6218262c0,0.5522461,0.4472656,1,1,1s1-0.4477539,1-1   v-0.5397949c1.9856567-0.401123,3.4853516-2.1549072,3.4853516-4.2526855c0-2.3925781-1.9511719-4.3393555-4.3496094-4.3393555   h-0.1357422c-1.2958984,0-2.3496094-1.0498047-2.3496094-2.3398438s1.0537109-2.3398438,2.3496094-2.3398438   c1.2949219,0,2.3486328,1.0498047,2.3486328,2.3398438c0,0.5522461,0.4472656,1,1,1s1-0.4477539,1-1   c0-2.0481567-1.4335938-3.7591553-3.3486328-4.2127686V68.796875c0-0.5522461-0.4472656-1-1-1s-1,0.4477539-1,1v0.5795898   c-1.9158325,0.4534302-3.3496094,2.1646118-3.3496094,4.2128906   C18.6044922,75.9824219,20.5556641,77.9291992,22.9541016,77.9291992z"/><path d="M23.0214844,89.9599609c7.1806641,0,13.0224609-5.8457031,13.0224609-13.0307617   c0-7.1855469-5.8417969-13.03125-13.0224609-13.03125C15.8417969,63.8979492,10,69.7436523,10,76.9291992   C10,84.1142578,15.8417969,89.9599609,23.0214844,89.9599609z M23.0214844,65.8979492   c6.078125,0,11.0224609,4.9487305,11.0224609,11.03125s-4.9443359,11.0307617-11.0224609,11.0307617   C16.9443359,87.9599609,12,83.0117188,12,76.9291992S16.9443359,65.8979492,23.0214844,65.8979492z"/><path d="M31.6943359,49h-0.1357422c-1.2949219,0-2.3486328-1.0498047-2.3486328-2.3398438s1.0537109-2.3393555,2.3486328-2.3393555   s2.3486328,1.0493164,2.3486328,2.3393555c0,0.5522461,0.4472656,1,1,1s1-0.4477539,1-1   c0-2.0477295-1.4335938-3.758667-3.3486328-4.2122803v-0.5797119c0-0.5522461-0.4472656-1-1-1s-1,0.4477539-1,1v0.5797119   c-1.9150391,0.4536133-3.3486328,2.1645508-3.3486328,4.2122803C27.2099609,49.0532227,29.1611328,51,31.5585938,51h0.1357422   c1.2958984,0,2.3496094,1.0498047,2.3496094,2.3398438s-1.0537109,2.3393555-2.3496094,2.3393555   c-1.2949219,0-2.3486328-1.0493164-2.3486328-2.3393555c0-0.5522461-0.4472656-1-1-1s-1,0.4477539-1,1   c0,1.9979858,1.3679199,3.6680298,3.2128906,4.170166v0.6218262c0,0.5522461,0.4472656,1,1,1s1-0.4477539,1-1V57.592041   c1.9856567-0.401123,3.4853516-2.1548462,3.4853516-4.2521973C36.0439453,50.9467773,34.0927734,49,31.6943359,49z"/><path d="M31.6269531,36.96875c-7.1806641,0-13.0224609,5.8457031-13.0224609,13.03125s5.8417969,13.03125,13.0224609,13.03125   c7.1796875,0,13.0214844-5.8457031,13.0214844-13.03125S38.8066406,36.96875,31.6269531,36.96875z M31.6269531,61.03125   c-6.078125,0-11.0224609-4.9487305-11.0224609-11.03125s4.9443359-11.03125,11.0224609-11.03125   c6.0771484,0,11.0214844,4.9487305,11.0214844,11.03125S37.7041016,61.03125,31.6269531,61.03125z"/><path d="M22.9541016,24.0708008h0.1357422c1.2958984,0,2.3496094,1.0498047,2.3496094,2.3398438   s-1.0537109,2.3398438-2.3496094,2.3398438c-1.2949219,0-2.3486328-1.0498047-2.3486328-2.3398438c0-0.5522461-0.4472656-1-1-1   s-1,0.4477539-1,1c0,1.9984131,1.3679199,3.6685181,3.2128906,4.1706543v0.6218262c0,0.5522461,0.4472656,1,1,1s1-0.4477539,1-1   v-0.5397949c1.9856567-0.401123,3.4853516-2.1549072,3.4853516-4.2526855c0-2.3930664-1.9511719-4.3398438-4.3496094-4.3398438   h-0.1357422c-1.2958984,0-2.3496094-1.0493164-2.3496094-2.3393555s1.0537109-2.3398438,2.3496094-2.3398438   c1.2949219,0,2.3486328,1.0498047,2.3486328,2.3398438c0,0.5522461,0.4472656,1,1,1s1-0.4477539,1-1   c0-2.0481567-1.4335938-3.7591553-3.3486328-4.2127686v-0.5797119c0-0.5522461-0.4472656-1-1-1s-1,0.4477539-1,1v0.5795898   c-1.9158325,0.4534302-3.3496094,2.1646118-3.3496094,4.2128906   C18.6044922,22.1240234,20.5556641,24.0708008,22.9541016,24.0708008z"/><path d="M23.0214844,36.1020508c7.1806641,0,13.0224609-5.8457031,13.0224609-13.03125   c0-7.1850586-5.8417969-13.0307617-13.0224609-13.0307617C15.8417969,10.0400391,10,15.8857422,10,23.0708008   C10,30.2563477,15.8417969,36.1020508,23.0214844,36.1020508z M23.0214844,12.0400391   c6.078125,0,11.0224609,4.9482422,11.0224609,11.0307617s-4.9443359,11.03125-11.0224609,11.03125   C16.9443359,34.1020508,12,29.1533203,12,23.0708008S16.9443359,12.0400391,23.0214844,12.0400391z"/><path d="M55.34375,24.7773438c0,0.5522461,0.4472656,1,1,1h13.0830078c0.5527344,0,1-0.4477539,1-1s-0.4472656-1-1-1H56.34375   C55.7910156,23.7773438,55.34375,24.2250977,55.34375,24.7773438z"/><path d="M56.34375,35.6821289h13.0830078c0.5527344,0,1-0.4477539,1-1s-0.4472656-1-1-1H56.34375c-0.5527344,0-1,0.4477539-1,1   S55.7910156,35.6821289,56.34375,35.6821289z"/><path d="M56.34375,45.5869141h13.0830078c0.5527344,0,1-0.4477539,1-1s-0.4472656-1-1-1H56.34375c-0.5527344,0-1,0.4477539-1,1   S55.7910156,45.5869141,56.34375,45.5869141z"/><path d="M80.7060547,23.7773438h-4.1708984c-0.5527344,0-1,0.4477539-1,1s0.4472656,1,1,1h4.1708984c0.5527344,0,1-0.4477539,1-1   S81.2587891,23.7773438,80.7060547,23.7773438z"/><path d="M80.7060547,33.6821289h-4.1708984c-0.5527344,0-1,0.4477539-1,1s0.4472656,1,1,1h4.1708984c0.5527344,0,1-0.4477539,1-1   S81.2587891,33.6821289,80.7060547,33.6821289z"/><path d="M80.7060547,43.5869141h-4.1708984c-0.5527344,0-1,0.4477539-1,1s0.4472656,1,1,1h4.1708984c0.5527344,0,1-0.4477539,1-1   S81.2587891,43.5869141,80.7060547,43.5869141z"/><path d="M52.2714844,12c0.5527344,0,1-0.4477539,1-1s-0.4472656-1-1-1h-4.2216797c-0.5527344,0-1,0.4477539-1,1   c0,0.001709,0.0009766,0.0031128,0.0009766,0.0048218v77.9903564c0,0.001709-0.0009766,0.0031128-0.0009766,0.0048218   c0,0.5522461,0.4472656,1,1,1h4.2216797c0.5527344,0,1-0.4477539,1-1s-0.4472656-1-1-1h-3.2207031V12H52.2714844z"/><path d="M57.2324219,12h4.2216797c0.5527344,0,1-0.4477539,1-1s-0.4472656-1-1-1h-4.2216797c-0.5527344,0-1,0.4477539-1,1   S56.6796875,12,57.2324219,12z"/><path d="M70.6357422,10h-4.2216797c-0.5527344,0-1,0.4477539-1,1s0.4472656,1,1,1h4.2216797c0.5527344,0,1-0.4477539,1-1   S71.1884766,10,70.6357422,10z"/><path d="M79.8183594,10h-4.2216797c-0.5527344,0-1,0.4477539-1,1s0.4472656,1,1,1h4.2216797c0.5527344,0,1-0.4477539,1-1   S80.3710938,10,79.8183594,10z"/><path d="M89,10h-4.2216797c-0.5527344,0-1,0.4477539-1,1s0.4472656,1,1,1H88v76h-3.2216797c-0.5527344,0-1,0.4477539-1,1   s0.4472656,1,1,1H89c0.5527344,0,1-0.4477539,1-1V11C90,10.4477539,89.5527344,10,89,10z"/><path d="M57.2324219,88c-0.5527344,0-1,0.4477539-1,1s0.4472656,1,1,1h4.2216797c0.5527344,0,1-0.4477539,1-1s-0.4472656-1-1-1   H57.2324219z"/><path d="M66.4140625,88c-0.5527344,0-1,0.4477539-1,1s0.4472656,1,1,1h4.2216797c0.5527344,0,1-0.4477539,1-1s-0.4472656-1-1-1   H66.4140625z"/><path d="M75.5966797,90h4.2216797c0.5527344,0,1-0.4477539,1-1s-0.4472656-1-1-1h-4.2216797c-0.5527344,0-1,0.4477539-1,1   S75.0439453,90,75.5966797,90z"/></g><text x="0" y="115" fill="#000000" font-size="5px" font-weight="bold" font-family="'Helvetica Neue', Helvetica, Arial-Unicode, Arial, Sans-serif">Created by Made</text><text x="0" y="120" fill="#000000" font-size="5px" font-weight="bold" font-family="'Helvetica Neue', Helvetica, Arial-Unicode, Arial, Sans-serif">from the Noun Project</text></svg>