<svg xmlns="http://www.w3.org/2000/svg" xmlns:xlink="http://www.w3.org/1999/xlink" version="1.1" x="0px" y="0px" viewBox="0 0 100 125" style="enable-background:new 0 0 100 100;" xml:space="preserve"><path d="M89,49h-2.7124023C85.7636719,29.7724609,70.2280273,14.2368164,51,13.7128906V11c0-0.5527344-0.4477539-1-1-1  s-1,0.4472656-1,1v2.7128906C29.7719727,14.2368164,14.2363281,29.7724609,13.7124023,49H11c-0.5522461,0-1,0.4472656-1,1  s0.4477539,1,1,1h2.7124023C14.2363281,70.2275391,29.7719727,85.7631836,49,86.2871094V89c0,0.5527344,0.4477539,1,1,1  s1-0.4472656,1-1v-2.7128906C70.2280273,85.7631836,85.7636719,70.2275391,86.2875977,51H89c0.5522461,0,1-0.4472656,1-1  S89.5522461,49,89,49z M51,84.2871094v-2.6318359c0-0.5527344-0.4477539-1-1-1s-1,0.4472656-1,1v2.6318359  C30.8745117,83.7643433,16.2351685,69.125061,15.7124023,51h2.6328125c0.5522461,0,1-0.4472656,1-1s-0.4477539-1-1-1h-2.6328125  C16.2351685,30.874939,30.8745117,16.2356567,49,15.7128906v2.6318359c0,0.5527344,0.4477539,1,1,1s1-0.4472656,1-1v-2.6318359  C69.1254883,16.2356567,83.7648315,30.874939,84.2875977,49h-2.6328125c-0.5522461,0-1,0.4472656-1,1s0.4477539,1,1,1h2.6328125  C83.7648315,69.125061,69.1254883,83.7643433,51,84.2871094z"/><path d="M46.7265625,36.8515625c-4.9223633,0-8.9272461,4.0048828-8.9272461,8.9277344c0,0.5527344,0.4477539,1,1,1s1-0.4472656,1-1  c0-3.8203125,3.1074219-6.9277344,6.9272461-6.9277344c0.5522461,0,1-0.4472656,1-1S47.2788086,36.8515625,46.7265625,36.8515625z"/><path d="M57.579834,55.0241699c2.3709717-2.6994629,3.8215332-6.2259521,3.8215332-10.0925293  c0-8.4521484-6.8759766-15.328125-15.3276367-15.328125s-15.3276367,6.8759766-15.3276367,15.328125  c0,8.4511719,6.8759766,15.3271484,15.3276367,15.3271484c3.866333,0,7.3925781-1.4501953,10.09198-3.8206177l9.3811646,9.3811646  c0.1953125,0.1953125,0.4511719,0.2929688,0.7070312,0.2929688s0.5117188-0.0976562,0.7070312-0.2929688  c0.390625-0.390625,0.390625-1.0234375,0-1.4140625L57.579834,55.0241699z M32.7460938,44.9316406  c0-7.3496094,5.9785156-13.328125,13.3276367-13.328125s13.3276367,5.9785156,13.3276367,13.328125  c0,7.3486328-5.9785156,13.3271484-13.3276367,13.3271484S32.7460938,52.2802734,32.7460938,44.9316406z"/><text x="0" y="115" fill="#000000" font-size="5px" font-weight="bold" font-family="'Helvetica Neue', Helvetica, Arial-Unicode, Arial, Sans-serif">Created by Made</text><text x="0" y="120" fill="#000000" font-size="5px" font-weight="bold" font-family="'Helvetica Neue', Helvetica, Arial-Unicode, Arial, Sans-serif">from the Noun Project</text></svg>