<svg xmlns="http://www.w3.org/2000/svg" xmlns:xlink="http://www.w3.org/1999/xlink" version="1.1" x="0px" y="0px" viewBox="0 0 100 125" style="enable-background:new 0 0 100 100;" xml:space="preserve"><path d="M89,88h-0.921875V48.5810547c0-0.5522461-0.4477539-1-1-1H74.3139648c-0.5522461,0-1,0.4477539-1,1V88h-5.699707V57.2783203  c0-0.5522461-0.4477539-1-1-1H53.8500977c-0.5522461,0-1,0.4477539-1,1V88h-5.7001953V48.5810547c0-0.5522461-0.4477539-1-1-1  H33.3857422c-0.5522461,0-1,0.4477539-1,1V88h-5.699707V54.0087891c0-0.5522461-0.4477539-1-1-1H12.921875  c-0.5522461,0-1,0.4477539-1,1V88H11c-0.5522461,0-1,0.4477539-1,1s0.4477539,1,1,1h1.921875h12.7641602h7.699707h12.7641602  h7.7001953h12.7641602h7.699707H87.078125H89c0.5522461,0,1-0.4477539,1-1S89.5522461,88,89,88z M13.921875,88V55.0087891  h10.7641602V88H13.921875z M34.3857422,88V49.5810547h10.7641602V88H34.3857422z M54.8500977,88V58.2783203h10.7641602V88  H54.8500977z M75.3139648,88V49.5810547H86.078125V88H75.3139648z"/><path d="M67.9575195,40.7348633c2.7729492,0,5.0292969-2.2558594,5.0292969-5.0288086V15.0288086  C72.9868164,12.2558594,70.7304688,10,67.9575195,10H32.0419922c-2.7729492,0-5.0288086,2.2558594-5.0288086,5.0288086v20.6772461  c0,2.7729492,2.2558594,5.0288086,5.0288086,5.0288086H67.9575195z M29.0131836,35.7060547V15.0288086  C29.0131836,13.3588867,30.3720703,12,32.0419922,12h35.9155273c1.6704102,0,3.0292969,1.3588867,3.0292969,3.0288086v20.6772461  c0,1.6699219-1.3588867,3.0288086-3.0292969,3.0288086H32.0419922  C30.3720703,38.7348633,29.0131836,37.3759766,29.0131836,35.7060547z"/><path d="M34.5224609,33.546875h3.168457c0.5522461,0,1-0.4477539,1-1s-0.4477539-1-1-1h-3.168457c-0.5522461,0-1,0.4477539-1,1  S33.9702148,33.546875,34.5224609,33.546875z"/><path d="M42.4594727,32.546875c0,0.5522461,0.4477539,1,1,1h3.168457c0.5522461,0,1-0.4477539,1-1s-0.4477539-1-1-1h-3.168457  C42.9072266,31.546875,42.4594727,31.9946289,42.4594727,32.546875z"/><path d="M55.5649414,31.546875h-3.168457c-0.5522461,0-1,0.4477539-1,1s0.4477539,1,1,1h3.168457c0.5522461,0,1-0.4477539,1-1  S56.1171875,31.546875,55.5649414,31.546875z"/><path d="M64.5024414,31.546875h-3.1689453c-0.5522461,0-1,0.4477539-1,1s0.4477539,1,1,1h3.1689453c0.5522461,0,1-0.4477539,1-1  S65.0546875,31.546875,64.5024414,31.546875z"/><path d="M49,19.5229492h15.5024414c0.5522461,0,1-0.4477539,1-1s-0.4477539-1-1-1H49c-0.5522461,0-1,0.4477539-1,1  S48.4477539,19.5229492,49,19.5229492z"/><path d="M49,25.6557617h15.5024414c0.5522461,0,1-0.4477539,1-1s-0.4477539-1-1-1H49c-0.5522461,0-1,0.4477539-1,1  S48.4477539,25.6557617,49,25.6557617z"/><path d="M34.5224609,27.0537109h8.4951172c0.5522461,0,1-0.4477539,1-1v-8.4956055c0-0.5522461-0.4477539-1-1-1h-8.4951172  c-0.5522461,0-1,0.4477539-1,1v8.4956055C33.5224609,26.605957,33.9702148,27.0537109,34.5224609,27.0537109z   M35.5224609,18.5581055h6.4951172v6.4956055h-6.4951172V18.5581055z"/><text x="0" y="115" fill="#000000" font-size="5px" font-weight="bold" font-family="'Helvetica Neue', Helvetica, Arial-Unicode, Arial, Sans-serif">Created by Made</text><text x="0" y="120" fill="#000000" font-size="5px" font-weight="bold" font-family="'Helvetica Neue', Helvetica, Arial-Unicode, Arial, Sans-serif">from the Noun Project</text></svg>