<svg xmlns="http://www.w3.org/2000/svg" xmlns:xlink="http://www.w3.org/1999/xlink" version="1.1" x="0px" y="0px" viewBox="0 0 100 125" style="enable-background:new 0 0 100 100;" xml:space="preserve"><path d="M73.246582,83.8154297c0.1650391,0,0.3320312-0.0410156,0.4863281-0.1269531  c0.4824219-0.2685547,0.6552734-0.8779297,0.3857422-1.3603516l-4.0981445-7.3427734  c-0.269043-0.4833984-0.8779297-0.6552734-1.3603516-0.3857422c-0.4824219,0.2685547-0.6552734,0.8779297-0.3857422,1.3603516  l4.0981445,7.3427734C72.5556641,83.6308594,72.8959961,83.8154297,73.246582,83.8154297z"/><path d="M89.5444336,65.4472656l-7.7592773-3.2617188c-0.5131836-0.2128906-1.0957031,0.0244141-1.3095703,0.5341797  s0.0253906,1.0957031,0.5341797,1.3095703l7.7592773,3.2617188c0.1269531,0.0527344,0.2583008,0.078125,0.387207,0.078125  c0.390625,0,0.7617188-0.2294922,0.9223633-0.6123047C90.2924805,66.2470703,90.0532227,65.6611328,89.5444336,65.4472656z"/><path d="M51,89v-8.4052734c0-0.5527344-0.4477539-1-1-1s-1,0.4472656-1,1V89c0,0.5527344,0.4477539,1,1,1S51,89.5527344,51,89z"/><path d="M26.9101562,83.8154297c0.3505859,0,0.6914062-0.1845703,0.8740234-0.5126953l4.0976562-7.3427734  c0.2695312-0.4824219,0.0966797-1.0917969-0.3857422-1.3603516c-0.4829102-0.2695312-1.0922852-0.0976562-1.3603516,0.3857422  l-4.0976562,7.3427734c-0.2695312,0.4824219-0.0966797,1.0917969,0.3857422,1.3603516  C26.578125,83.7744141,26.7451172,83.8154297,26.9101562,83.8154297z"/><path d="M19.6811523,62.7197266c-0.2133789-0.5087891-0.796875-0.7460938-1.3095703-0.5341797l-7.7592773,3.2617188  c-0.5087891,0.2138672-0.7480469,0.7998047-0.5341797,1.3095703c0.1606445,0.3828125,0.5317383,0.6123047,0.9223633,0.6123047  c0.1289062,0,0.2602539-0.0253906,0.387207-0.078125l7.7592773-3.2617188  C19.6557617,63.8154297,19.8950195,63.2294922,19.6811523,62.7197266z"/><path d="M80.9643555,16.3203125V11c0-0.5527344-0.4477539-1-1-1H20.0356445c-0.5522461,0-1,0.4472656-1,1v5.3203125  c0,2.1383667,1.6374512,3.8826294,3.7209473,4.0938721l1.9709473,7.1014404  c0.1201172,0.4326172,0.5141602,0.7324219,0.9633789,0.7324219h2.4228516v23.4677734  c0,13.2070312,9.8183594,23.9511719,21.8862305,23.9511719s21.8862305-10.7441406,21.8862305-23.9511719V28.2480469h2.4228516  c0.4492188,0,0.8432617-0.2998047,0.9633789-0.7324219l1.9709473-7.1014404  C79.3269043,20.2029419,80.9643555,18.4586792,80.9643555,16.3203125z M69.8862305,51.7158203  c0,12.1035156-8.9208984,21.9511719-19.8862305,21.9511719s-19.8862305-9.8476562-19.8862305-21.9511719V28.2480469h39.7724609  V51.7158203z M73.5488281,26.2480469H26.4511719l-1.607666-5.7919922h50.3129883L73.5488281,26.2480469z M78.9643555,16.3203125  c0,1.1777344-0.9580078,2.1357422-2.1352539,2.1357422H23.1708984c-1.1772461,0-2.1352539-0.9580078-2.1352539-2.1357422V12  h57.9287109V16.3203125z"/><path d="M47.1396484,66.1855469c0.09375,0.0273438,0.1875,0.0400391,0.2802734,0.0400391  c0.4331055,0,0.8325195-0.2832031,0.9594727-0.7207031c0.1547852-0.5302734-0.1499023-1.0849609-0.6801758-1.2392578  c-2.3022461-0.6708984-4.3999023-2.03125-6.065918-3.9335938c-0.3637695-0.4169922-0.9951172-0.4599609-1.4111328-0.09375  c-0.4155273,0.3632812-0.4575195,0.9951172-0.09375,1.4101562C42.0463867,63.8398438,44.4707031,65.4082031,47.1396484,66.1855469z"/><text x="0" y="115" fill="#000000" font-size="5px" font-weight="bold" font-family="'Helvetica Neue', Helvetica, Arial-Unicode, Arial, Sans-serif">Created by Made</text><text x="0" y="120" fill="#000000" font-size="5px" font-weight="bold" font-family="'Helvetica Neue', Helvetica, Arial-Unicode, Arial, Sans-serif">from the Noun Project</text></svg>