<svg xmlns="http://www.w3.org/2000/svg" xmlns:xlink="http://www.w3.org/1999/xlink" version="1.1" x="0px" y="0px" viewBox="0 0 100 125" style="enable-background:new 0 0 100 100;" xml:space="preserve"><style type="text/css">
	.st0{fill:none;stroke:#000000;stroke-width:2;stroke-linecap:round;stroke-linejoin:round;stroke-miterlimit:10;}
	.st1{fill:none;stroke:#000000;stroke-width:2;stroke-miterlimit:10;}
</style><path d="M42.4,37.3l-0.1,0.4c-0.2,0.5,0.1,1.1,0.6,1.3c0.1,0,0.2,0,0.3,0c0.4,0,0.8-0.3,1-0.7l0.1-0.3c0.1,0,0.2,0,0.2,0  c1.6,0,3-1,3.5-2.6c0.5-1.7-0.2-3.4-1.6-4.3l1-3.1c0.3,0.4,0.4,1,0.3,1.5c-0.2,0.5,0.1,1.1,0.6,1.3s1.1-0.1,1.3-0.7  c0.5-1.6-0.2-3.3-1.5-4.2l0.1-0.3c0.2-0.5-0.1-1.1-0.6-1.3c-0.5-0.2-1.1,0.1-1.3,0.7l-0.1,0.3c-1.6-0.1-3.1,0.9-3.7,2.6  c-0.3,0.9-0.2,1.9,0.2,2.8c0.3,0.6,0.7,1,1.3,1.4l-1,3c-0.3-0.4-0.3-0.9-0.2-1.4c0.2-0.5-0.1-1.1-0.6-1.3c-0.5-0.2-1.1,0.1-1.3,0.7  C40.5,34.8,41.1,36.4,42.4,37.3z M46.1,34.8c-0.2,0.6-0.7,1-1.2,1.1l0.9-2.8C46.2,33.6,46.3,34.2,46.1,34.8z M44.5,29.9  c-0.2-0.4-0.2-0.9-0.1-1.3c0.2-0.5,0.6-0.9,1.1-1.1l-0.8,2.6C44.6,30,44.5,30,44.5,29.9z"/><path d="M54.4,46.9L29,38.8c-0.5-0.2-1.1,0.1-1.3,0.7c-0.2,0.5,0.1,1.1,0.6,1.3l25.4,8.1c0.1,0,0.2,0,0.3,0c0.4,0,0.8-0.3,1-0.7  C55.2,47.7,54.9,47.1,54.4,46.9z"/><path d="M52.5,52.7l-25.4-8.1c-0.5-0.2-1.1,0.1-1.3,0.7c-0.2,0.5,0.1,1.1,0.6,1.3l25.4,8.1c0.1,0,0.2,0,0.3,0c0.4,0,0.8-0.3,1-0.7  C53.4,53.4,53.1,52.9,52.5,52.7z"/><path d="M50.7,58.5l-25.4-8.1c-0.5-0.2-1.1,0.1-1.3,0.7c-0.2,0.5,0.1,1.1,0.6,1.3l25.4,8.1c0.1,0,0.2,0,0.3,0c0.4,0,0.8-0.3,1-0.7  C51.5,59.2,51.2,58.7,50.7,58.5z"/><path d="M48.9,64.3l-25.4-8.1c-0.5-0.2-1.1,0.1-1.3,0.7c-0.2,0.5,0.1,1.1,0.6,1.3l25.4,8.1c0.1,0,0.2,0,0.3,0c0.4,0,0.8-0.3,1-0.7  C49.7,65,49.4,64.5,48.9,64.3z"/><path d="M47,70.1L21.6,62c-0.5-0.2-1.1,0.1-1.3,0.7c-0.2,0.5,0.1,1.1,0.6,1.3L46.4,72c0.1,0,0.2,0,0.3,0c0.4,0,0.8-0.3,1-0.7  C47.8,70.8,47.5,70.3,47,70.1z"/><path d="M45.2,75.9l-25.4-8.1c-0.5-0.2-1.1,0.1-1.3,0.7c-0.2,0.5,0.1,1.1,0.6,1.3l25.4,8.1c0.1,0,0.2,0,0.3,0c0.4,0,0.8-0.3,1-0.7  C46,76.6,45.7,76,45.2,75.9z"/><path d="M73.8,10.9c-0.1-0.5-0.7-0.9-1.2-0.7L46.9,17l-15.4-4.9c-0.3-0.1-0.5-0.1-0.8,0.1c-0.2,0.1-0.4,0.3-0.5,0.6L10.1,76.1  c-0.2,0.5,0.1,1.1,0.6,1.3l36.4,11.6c0.1,0,0.2,0,0.3,0c0.2,0,0.3,0,0.5-0.1c0.2-0.1,0.4-0.3,0.5-0.6l2.5-7.9l1.3,5.1  c0.1,0.3,0.2,0.5,0.5,0.6c0.2,0.1,0.3,0.1,0.5,0.1c0.1,0,0.2,0,0.3,0l36.9-9.9c0.5-0.1,0.9-0.7,0.7-1.2L73.8,10.9z M46.7,86.7  l-34.5-11l19.5-61.4l34.5,11L46.7,86.7z M53.9,83.9L52,76.8c0,0,0,0,0-0.1l2.4-7.4l26.3-7c0.5-0.1,0.9-0.7,0.7-1.2  c-0.1-0.5-0.7-0.9-1.2-0.7l-25.1,6.7l1.4-4.5l22.6-6.1c0.5-0.1,0.8-0.7,0.7-1.2c-0.1-0.5-0.7-0.8-1.2-0.7l-21.3,5.7l1.4-4.5  l18.8-5.1c0.5-0.1,0.8-0.7,0.7-1.2c-0.1-0.5-0.7-0.8-1.2-0.7l-17.6,4.8l1.5-4.7l15-4c0.5-0.1,0.9-0.7,0.7-1.2s-0.7-0.8-1.2-0.7  l-13.8,3.7l1.5-4.6c0,0,0,0,0,0l11.3-3c0.5-0.1,0.8-0.7,0.7-1.2c-0.1-0.5-0.7-0.8-1.2-0.7l-10,2.7L68.5,25c0.2-0.5-0.1-1.1-0.6-1.3  l-17.4-5.5l21.8-5.8l16.7,62.2L53.9,83.9z"/><path d="M55.2,74.4c0.1,0.4,0.5,0.7,1,0.7c0.1,0,0.2,0,0.3,0l25.7-6.9c0.5-0.1,0.9-0.7,0.7-1.2c-0.1-0.5-0.7-0.9-1.2-0.7L56,73.2  C55.4,73.3,55.1,73.9,55.2,74.4z"/><text x="0" y="115" fill="#000000" font-size="5px" font-weight="bold" font-family="'Helvetica Neue', Helvetica, Arial-Unicode, Arial, Sans-serif">Created by Made</text><text x="0" y="120" fill="#000000" font-size="5px" font-weight="bold" font-family="'Helvetica Neue', Helvetica, Arial-Unicode, Arial, Sans-serif">from the Noun Project</text></svg>